<svg width="64" height="64" viewBox="0 0 64 64" fill="none" xmlns="http://www.w3.org/2000/svg">
<path d="M44.8703 10L52 39.5239L25.3537 55L24.446 51.3012L18.1201 25.391L44.8703 10Z" fill="white"/>
<path d="M15.7467 43.9226C17.08 36.1278 18.0634 26.0532 18.1201 25.4194C18.1201 25.4004 18.1201 25.391 18.1201 25.391C18.1201 25.391 18.1579 37.7265 19.094 47.5457L14.1865 50.9134C14.7255 49.2485 15.255 46.7416 15.7373 43.9321L15.7467 43.9226Z" fill="#89D2A4"/>
<path d="M19.0941 47.5457C18.1579 37.7265 18.1201 25.391 18.1201 25.391L24.446 51.3012L19.9923 54.2527C19.6236 52.3323 19.3399 50.0147 19.1035 47.5362L19.0941 47.5457Z" fill="#89D2A4"/>
<path d="M18.0823 25.4951C18.0823 25.4951 18.1012 25.4384 18.1107 25.4194C18.054 26.0627 17.0706 36.1279 15.7373 43.9227L11 46.6566C12.0969 40.8294 17.5528 26.8289 18.0729 25.4951H18.0823Z" fill="#89D2A4"/>
<path d="M25.354 54.9999L52.0002 39.5238" stroke="#006646" stroke-width="2" stroke-linecap="round" stroke-linejoin="round"/>
<path d="M44.8704 10L18.1201 25.391" stroke="#006646" stroke-width="2" stroke-linecap="round" stroke-linejoin="round"/>
<path d="M18.0826 25.4951C17.5531 26.8384 12.0972 40.8294 11.0098 46.6566" stroke="#006646" stroke-width="2" stroke-linecap="round" stroke-linejoin="round"/>
<path d="M25.3537 55L24.446 51.3012L18.1201 25.391C18.1201 25.391 18.1201 25.391 18.1201 25.4194" stroke="#006646" stroke-width="2" stroke-linecap="round" stroke-linejoin="round"/>
<path d="M44.8706 10L52.0002 39.5239" stroke="#006646" stroke-width="2" stroke-linecap="round" stroke-linejoin="round"/>
<path d="M18.1201 25.391C18.1201 25.391 18.1201 25.391 18.1201 25.421" stroke="#006646" stroke-width="2" stroke-linecap="round" stroke-linejoin="round"/>
<path d="M47.4707 34.4724L45.0122 35.8914L45.7876 39.0225L48.2366 37.6036L47.4707 34.4724Z" fill="#D2EEDC"/>
<path d="M44.8327 35.1914L47.2817 33.7724L46.5063 30.6412L44.0479 32.0602L44.8327 35.1914Z" fill="#89D2A4"/>
<path d="M43.8681 31.3602L46.3266 29.9318L45.5607 26.8101L43.0928 28.229L43.8681 31.3602Z" fill="#89D2A4"/>
<path d="M42.9131 27.5196L45.3621 26.1006L44.5962 22.9789L42.1377 24.3884L42.9131 27.5196Z" fill="#89D2A4"/>
<path d="M41.958 37.6699L42.7334 40.8105L45.1824 39.3916L44.4165 36.2604L41.958 37.6699Z" fill="#D2EEDC"/>
<path d="M44.407 22.2694L43.6411 19.1382L41.1826 20.5477L41.9485 23.6883L44.407 22.2694Z" fill="#89D2A4"/>
<path d="M44.2275 35.5509L43.4616 32.4197L40.9937 33.8386L41.7785 36.9793L44.2275 35.5509Z" fill="#89D2A4"/>
<path d="M43.2724 31.7197L42.5065 28.5885L40.0386 30.0075L40.8139 33.1481L43.2724 31.7197Z" fill="#89D2A4"/>
<path d="M39.0835 26.1763L39.8589 29.3075L42.3079 27.8885L41.542 24.7573L39.0835 26.1763Z" fill="#89D2A4"/>
<path d="M38.9038 39.4577L39.6792 42.5888L42.1282 41.1699L41.3623 38.0387L38.9038 39.4577Z" fill="#D2EEDC"/>
<path d="M41.3528 24.0477L40.5869 20.926L38.1284 22.3355L38.8943 25.4762L41.3528 24.0477Z" fill="#89D2A4"/>
<path d="M41.1731 37.3387L40.4072 34.2075L37.9487 35.6265L38.7146 38.7577L41.1731 37.3387Z" fill="#89D2A4"/>
<path d="M40.2086 33.4981L39.4427 30.3763L36.9937 31.7953L37.7596 34.9265L40.2086 33.4981Z" fill="#89D2A4"/>
<path d="M36.0293 27.9547L36.8047 31.0953L39.2537 29.6669L38.4878 26.5452L36.0293 27.9547Z" fill="#89D2A4"/>
<path d="M35.8496 41.2362L36.625 44.3768L39.074 42.9578L38.3081 39.8267L35.8496 41.2362Z" fill="#89D2A4"/>
<path d="M38.2988 25.8356L37.5329 22.7045L35.0649 24.114L35.8498 27.2546L38.2988 25.8356Z" fill="#89D2A4"/>
<path d="M38.1189 39.1171L37.353 35.986L34.8945 37.4049L35.6604 40.5456L38.1189 39.1171Z" fill="#89D2A4"/>
<path d="M37.1546 35.286L36.3887 32.1548L33.9302 33.5737L34.7055 36.7144L37.1546 35.286Z" fill="#89D2A4"/>
<path d="M32.9751 29.7426L33.7505 32.8737L36.1995 31.4453L35.4336 28.3236L32.9751 29.7426Z" fill="#89D2A4"/>
<path d="M32.7954 43.024L33.5708 46.1552L36.0198 44.7362L35.2539 41.6145L32.7954 43.024Z" fill="#89D2A4"/>
<path d="M35.2446 27.6141L34.4787 24.4924L32.0107 25.9019L32.7956 29.0331L35.2446 27.6141Z" fill="#D2EEDC"/>
<path d="M35.0647 40.9051L34.2988 37.7739L31.8403 39.1929L32.6157 42.3241L35.0647 40.9051Z" fill="#89D2A4"/>
<path d="M30.876 35.3617L31.6608 38.4929L34.1098 37.0645L33.3439 33.9427L30.876 35.3617Z" fill="#89D2A4"/>
<path d="M29.9209 31.521L30.6963 34.6616L33.1548 33.2332L32.3888 30.1115L29.9209 31.521Z" fill="#89D2A4"/>
<path d="M29.7412 44.8119L30.5166 47.9431L32.9656 46.5241L32.1997 43.3929L29.7412 44.8119Z" fill="#89D2A4"/>
<path d="M32.1902 29.402L31.4243 26.2803L28.9658 27.6898L29.7412 30.821L32.1902 29.402Z" fill="#D2EEDC"/>
<path d="M32.0105 42.6929L31.2446 39.5618L28.7861 40.9713L29.5615 44.1119L32.0105 42.6929Z" fill="#89D2A4"/>
<path d="M31.0556 38.8522L30.2897 35.7211L27.8218 37.14L28.5971 40.2807L31.0556 38.8522Z" fill="#89D2A4"/>
<path d="M26.8667 33.3089L27.6421 36.44L30.0911 35.0116L29.3252 31.8899L26.8667 33.3089Z" fill="#89D2A4"/>
<path d="M26.687 46.5904L27.4624 49.7216L29.9209 48.3026L29.1455 45.1809L26.687 46.5904Z" fill="#89D2A4"/>
<path d="M29.136 31.1804L28.3701 28.0587L25.9116 29.4682L26.6775 32.6089L29.136 31.1804Z" fill="#D2EEDC"/>
<path d="M28.1906 41.3402L25.7227 42.7592L26.5075 45.8903L28.9565 44.4714L28.1906 41.3402Z" fill="#89D2A4"/>
<path d="M27.2353 37.509L24.7769 38.9185L25.5428 42.0592L28.0013 40.6402L27.2353 37.509Z" fill="#89D2A4"/>
<path d="M26.271 33.6779L23.8125 35.0874L24.5879 38.228L27.0369 36.7996L26.271 33.6779Z" fill="#89D2A4"/>
<path d="M25.3159 29.8466L22.8574 31.2561L23.6328 34.3872L26.0818 32.9683L25.3159 29.8466Z" fill="#D2EEDC"/>
<path d="M20.7773 23.4329C19.8506 21.8153 19.8317 20.0747 20.7395 19.5544C21.6472 19.0341 23.1412 19.9233 24.0679 21.5409C24.7487 22.7234 24.9378 23.9721 24.6352 24.7573" stroke="#006646" stroke-width="2" stroke-linecap="round" stroke-linejoin="round"/>
<path d="M29.7128 18.5232C28.7862 16.9056 28.7673 15.165 29.675 14.6447C30.5828 14.1244 32.0768 15.0137 33.0034 16.6313C33.6842 17.8137 33.8734 19.0624 33.5708 19.8476" stroke="#006646" stroke-width="2" stroke-linecap="round" stroke-linejoin="round"/>
<path d="M37.9111 14.0298C36.9844 12.4122 36.9655 10.6716 37.8733 10.1513C38.781 9.63104 40.275 10.5203 41.2017 12.1379C41.8825 13.3203 42.0716 14.569 41.769 15.3542" stroke="#006646" stroke-width="2" stroke-linecap="round" stroke-linejoin="round"/>
</svg>
