<svg width="8" height="8" viewBox="0 0 8 8" fill="none" xmlns="http://www.w3.org/2000/svg">
  <path
    d="M3.75 0C1.67885 0 0 1.67885 0 3.75C0 5.82115 1.67885 7.5 3.75 7.5C5.82115 7.5 7.5 5.82115 7.5 3.75C7.5 1.67885 5.82115 0 3.75 0ZM4.03846 1.44231C4.03846 1.3658 4.00807 1.29243 3.95397 1.23833C3.89988 1.18424 3.8265 1.15385 3.75 1.15385C3.6735 1.15385 3.60012 1.18424 3.54603 1.23833C3.49193 1.29243 3.46154 1.3658 3.46154 1.44231V3.75C3.46154 3.90923 3.59077 4.03846 3.75 4.03846H5.48077C5.55727 4.03846 5.63065 4.00807 5.68474 3.95397C5.73884 3.89988 5.76923 3.8265 5.76923 3.75C5.76923 3.6735 5.73884 3.60012 5.68474 3.54603C5.63065 3.49193 5.55727 3.46154 5.48077 3.46154H4.03846V1.44231Z"
    fill="#C2410C"
  />
</svg>
