<svg width="31" height="37" viewBox="0 0 31 37" fill="none" xmlns="http://www.w3.org/2000/svg">
<path d="M0 0H16.5333L22.4381 5.84325V29.2163H0V0Z" fill="#F4A9A4"/>
<path d="M3.47604 3.45044H18.5982L23.9141 8.71098V30.6667H3.47604V3.45044Z" fill="white" stroke="#DB271A" stroke-width="2"/>
<path d="M17.8285 9.46235H24.9143L17.8285 2.45044V9.46235Z" fill="#DB271A"/>
<path d="M13.5826 22.3174V11.7996H14.2102V22.3174H13.5826ZM15.2474 15.2713C15.2168 14.9399 15.0854 14.6824 14.8532 14.4989C14.621 14.3154 14.3059 14.2236 13.9079 14.2236C13.6374 14.2236 13.4091 14.2647 13.2228 14.3469C13.0366 14.4263 12.8937 14.5372 12.7942 14.6796C12.6972 14.8221 12.6488 14.9837 12.6488 15.1645C12.6437 15.3151 12.673 15.4466 12.7368 15.5589C12.8031 15.6712 12.8937 15.7684 13.0085 15.8506C13.1233 15.93 13.256 15.9999 13.4065 16.0601C13.5571 16.1176 13.7178 16.1669 13.8888 16.208L14.593 16.3888C14.9348 16.471 15.2487 16.5805 15.5344 16.7175C15.8202 16.8544 16.0677 17.0229 16.2769 17.2228C16.4861 17.4228 16.6481 17.6583 16.763 17.9295C16.8803 18.2007 16.9403 18.5115 16.9428 18.8621C16.9403 19.3771 16.8178 19.8235 16.5754 20.2015C16.3356 20.5768 15.9886 20.8685 15.5344 21.0766C15.0828 21.2821 14.5381 21.3848 13.9002 21.3848C13.2675 21.3848 12.7164 21.2807 12.2469 21.0725C11.78 20.8644 11.4151 20.5562 11.1523 20.1481C10.8921 19.7373 10.7556 19.2292 10.7428 18.6238H12.3464C12.3643 18.906 12.4395 19.1415 12.5722 19.3305C12.7074 19.5168 12.8873 19.6578 13.1118 19.7537C13.3389 19.8468 13.5953 19.8934 13.8811 19.8934C14.1618 19.8934 14.4054 19.8496 14.6121 19.7619C14.8213 19.6743 14.9833 19.5524 15.0981 19.3962C15.213 19.2401 15.2704 19.0607 15.2704 18.858C15.2704 18.669 15.2181 18.5102 15.1134 18.3814C15.0114 18.2527 14.8609 18.1431 14.6618 18.0528C14.4654 17.9624 14.2243 17.8802 13.9385 17.8062L13.0851 17.5762C12.4242 17.4036 11.9025 17.1338 11.5197 16.7668C11.137 16.3998 10.9469 15.9054 10.9495 15.2836C10.9469 14.7741 11.0732 14.3291 11.3284 13.9483C11.5861 13.5676 11.9395 13.2704 12.3885 13.0568C12.8376 12.8431 13.3478 12.7363 13.9194 12.7363C14.5011 12.7363 15.0088 12.8431 15.4426 13.0568C15.8789 13.2704 16.2182 13.5676 16.4606 13.9483C16.703 14.3291 16.828 14.77 16.8357 15.2713H15.2474Z" fill="#DB271A"/>
<circle cx="23" cy="29" r="8" fill="#DB271A"/>
<path d="M26.15 25.855C25.955 25.66 25.64 25.66 25.445 25.855L23 28.295L20.555 25.85C20.36 25.655 20.045 25.655 19.85 25.85C19.655 26.045 19.655 26.36 19.85 26.555L22.295 29L19.85 31.445C19.655 31.64 19.655 31.955 19.85 32.15C20.045 32.345 20.36 32.345 20.555 32.15L23 29.705L25.445 32.15C25.64 32.345 25.955 32.345 26.15 32.15C26.345 31.955 26.345 31.64 26.15 31.445L23.705 29L26.15 26.555C26.34 26.365 26.34 26.045 26.15 25.855Z" fill="white"/>
</svg>
