<svg width="24" height="24" viewBox="0 0 24 24" fill="none" xmlns="http://www.w3.org/2000/svg">
<path d="M14.14 11.6288H14.08C14.89 11.6288 15.36 10.7188 14.9 10.0588L9.82 2.79878C9.42 2.22878 8.58 2.22878 8.18 2.79878L3.1 10.0588C2.64 10.7188 3.11 11.6288 3.92 11.6288H3.86L0.990003 16.0888C0.560003 16.7488 1.04 17.6288 1.83 17.6288H7V19.6288C7 20.7288 7.9 21.6288 9 21.6288C10.1 21.6288 11 20.7288 11 19.6288V17.6288H16.17C16.96 17.6288 17.44 16.7488 17.01 16.0888L14.14 11.6288Z" fill="black" fill-opacity="0.34"/>
<path d="M23.01 16.0888L20.14 11.6288H20.08C20.89 11.6288 21.36 10.7188 20.9 10.0588L15.82 2.79878C15.42 2.22878 14.58 2.22878 14.18 2.79878L12.61 5.03878L15.72 9.47878C16.15 10.0888 16.2 10.8888 15.86 11.5488C15.78 11.7088 15.68 11.8488 15.56 11.9788L17.85 15.5488C18.25 16.1688 18.27 16.9488 17.92 17.5888C17.91 17.6088 17.9 17.6188 17.89 17.6288H22.17C22.96 17.6288 23.44 16.7488 23.01 16.0888Z" fill="black" fill-opacity="0.34"/>
<path d="M13 19.6288C13 20.7288 13.9 21.6288 15 21.6288C16.1 21.6288 17 20.7288 17 19.6288V18.6288H13V19.6288Z" fill="black" fill-opacity="0.34"/>
</svg>
