<svg width="31" height="37" viewBox="0 0 31 37" fill="none" xmlns="http://www.w3.org/2000/svg">
<path d="M0 0H16.5333L22.4381 5.84325V29.2163H0V0Z" fill="black" fill-opacity="0.08"/>
<path d="M3.47604 3.45044H18.5982L23.9141 8.71098V30.6667H3.47604V3.45044Z" fill="white" stroke="#A8A8A8" stroke-width="2"/>
<path d="M17.8285 9.46235H24.9143L17.8285 2.45044V9.46235Z" fill="#A8A8A8"/>
<path d="M13.5826 22.3174V11.7996H14.2102V22.3174H13.5826ZM15.2474 15.2713C15.2168 14.9399 15.0854 14.6824 14.8532 14.4989C14.621 14.3154 14.3059 14.2236 13.9079 14.2236C13.6374 14.2236 13.4091 14.2647 13.2228 14.3469C13.0366 14.4263 12.8937 14.5372 12.7942 14.6796C12.6972 14.8221 12.6488 14.9837 12.6488 15.1645C12.6437 15.3151 12.673 15.4466 12.7368 15.5589C12.8031 15.6712 12.8937 15.7684 13.0085 15.8506C13.1233 15.93 13.256 15.9999 13.4065 16.0601C13.5571 16.1176 13.7178 16.1669 13.8888 16.208L14.593 16.3888C14.9348 16.471 15.2487 16.5805 15.5344 16.7175C15.8202 16.8544 16.0677 17.0229 16.2769 17.2228C16.4861 17.4228 16.6481 17.6583 16.763 17.9295C16.8803 18.2007 16.9403 18.5115 16.9428 18.8621C16.9403 19.3771 16.8178 19.8235 16.5754 20.2015C16.3356 20.5768 15.9886 20.8685 15.5344 21.0766C15.0828 21.2821 14.5381 21.3848 13.9002 21.3848C13.2675 21.3848 12.7164 21.2807 12.2469 21.0725C11.78 20.8644 11.4151 20.5562 11.1523 20.1481C10.8921 19.7373 10.7556 19.2292 10.7428 18.6238H12.3464C12.3643 18.906 12.4395 19.1415 12.5722 19.3305C12.7074 19.5168 12.8873 19.6578 13.1118 19.7537C13.3389 19.8468 13.5953 19.8934 13.8811 19.8934C14.1618 19.8934 14.4054 19.8496 14.6121 19.7619C14.8213 19.6743 14.9833 19.5524 15.0981 19.3962C15.213 19.2401 15.2704 19.0607 15.2704 18.858C15.2704 18.669 15.2181 18.5102 15.1134 18.3814C15.0114 18.2527 14.8609 18.1431 14.6618 18.0528C14.4654 17.9624 14.2243 17.8802 13.9385 17.8062L13.0851 17.5762C12.4242 17.4036 11.9025 17.1338 11.5197 16.7668C11.137 16.3998 10.9469 15.9054 10.9495 15.2836C10.9469 14.7741 11.0732 14.3291 11.3284 13.9483C11.5861 13.5676 11.9395 13.2704 12.3885 13.0568C12.8376 12.8431 13.3478 12.7363 13.9194 12.7363C14.5011 12.7363 15.0088 12.8431 15.4426 13.0568C15.8789 13.2704 16.2182 13.5676 16.4606 13.9483C16.703 14.3291 16.828 14.77 16.8357 15.2713H15.2474Z" fill="#A8A8A8"/>
<circle cx="23" cy="29" r="8" fill="#A8A8A8"/>
<path d="M22.1188 31.0979V31.0072C22.1256 30.4153 22.1881 29.9443 22.3064 29.5943C22.428 29.2442 22.6004 28.961 22.8234 28.7446C23.0464 28.5282 23.3151 28.3309 23.6294 28.1527C23.8321 28.0318 24.0146 27.8966 24.1768 27.747C24.339 27.5975 24.4674 27.4256 24.562 27.2315C24.6567 27.0374 24.704 26.8226 24.704 26.5871C24.704 26.3039 24.633 26.0589 24.4911 25.852C24.3491 25.6452 24.1599 25.4861 23.9234 25.3747C23.6902 25.2601 23.43 25.2029 23.1427 25.2029C22.8825 25.2029 22.6342 25.2538 22.3976 25.3556C22.1611 25.4574 21.9651 25.6165 21.8096 25.8329C21.6542 26.0461 21.5646 26.3214 21.541 26.6587H20C20.0237 26.0859 20.1774 25.6022 20.4613 25.2076C20.7451 24.8099 21.1202 24.5091 21.5866 24.3055C22.0563 24.1018 22.575 24 23.1427 24C23.7645 24 24.3086 24.1098 24.7749 24.3294C25.2413 24.5457 25.6029 24.8496 25.8597 25.2411C26.1199 25.6293 26.25 26.0827 26.25 26.6014C26.25 26.9578 26.1909 27.2792 26.0726 27.5656C25.9543 27.8488 25.7853 28.1018 25.5657 28.3246C25.3494 28.5473 25.0892 28.7446 24.7851 28.9165C24.4978 29.0851 24.2647 29.2601 24.0856 29.4415C23.9098 29.6229 23.7814 29.8377 23.7003 30.0859C23.6192 30.3341 23.5753 30.6412 23.5685 31.0072V31.0979H22.1188ZM22.8842 34C22.6071 34 22.3689 33.9077 22.1695 33.7232C21.9701 33.5354 21.8704 33.3095 21.8704 33.0453C21.8704 32.7844 21.9701 32.5617 22.1695 32.3771C22.3689 32.1893 22.6071 32.0955 22.8842 32.0955C23.1579 32.0955 23.3945 32.1893 23.5939 32.3771C23.7966 32.5617 23.898 32.7844 23.898 33.0453C23.898 33.2204 23.8507 33.3811 23.7561 33.5274C23.6648 33.6706 23.5432 33.7852 23.3911 33.8711C23.2391 33.957 23.0701 34 22.8842 34Z" fill="white"/>
</svg>
